<?xml version="1.0" encoding="UTF-8" standalone="no"?>
<svg width="29px" height="13px" viewBox="0 0 29 13" version="1.1" xmlns="http://www.w3.org/2000/svg" xmlns:xlink="http://www.w3.org/1999/xlink" xmlns:sketch="http://www.bohemiancoding.com/sketch/ns">
    <g id="Page-1" stroke="none" stroke-width="1" fill-rule="evenodd" sketch:type="MSPage">
        <g id="arrow_prev" sketch:type="MSLayerGroup">
            <path d="M27.5,5.409 L3.414,5.409 L6.682,2.141 C7.073,1.751 7.073,1.118 6.682,0.727 C6.291,0.336 5.658,0.336 5.268,0.727 L0.318,5.677 C0.116,5.879 0.023,6.145 0.03,6.409 C0.023,6.673 0.116,6.939 0.318,7.141 L5.268,12.091 C5.659,12.482 6.292,12.482 6.682,12.091 C7.073,11.7 7.073,11.067 6.682,10.676 L3.414,7.409 L27.5,7.409 C28.052,7.409 28.5,6.961 28.5,6.409 C28.5,5.857 28.052,5.409 27.5,5.409 L27.5,5.409 Z" id="Shape" sketch:type="MSShapeGroup"></path>
        </g>
    </g>
</svg>